{"asset":{"version":"2.0","generator":"babylon.js glTF exporter for 3ds max 2019 v1.3.23"},"extensionsUsed":["KHR_texture_transform"],"extensionsRequired":["KHR_texture_transform"],"scene":0,"scenes":[{"nodes":[0,1,2],"extensions":{}}],"nodes":[{"mesh":0,"translation":[4.66036034,0.1469965,2.38066316],"rotation":[0.0,0.0,0.0,1.0],"scale":[1.0,1.0,1.0],"name":"floor_001_walls_29"},{"mesh":1,"translation":[-0.442800522,2.74199533,0.134106666],"rotation":[0.0,0.0,0.0,1.0],"scale":[1.05364871,1.0,1.05332291],"name":"Object001"},{"translation":[0.0,0.0,0.0],"rotation":[0.0,0.0,0.0,1.0],"scale":[1.0,1.0,1.0],"name":"Default light"}],"meshes":[{"primitives":[{"attributes":{"POSITION":1,"NORMAL":2,"TEXCOORD_0":3},"indices":0,"mode":4,"material":0}],"name":"floor_001_walls_29"},{"primitives":[{"attributes":{"POSITION":5,"NORMAL":6},"indices":4,"mode":4,"material":1}],"name":"Object001"}],"accessors":[{"bufferView":0,"componentType":5123,"count":1608,"type":"SCALAR","name":"accessorIndices"},{"bufferView":1,"componentType":5126,"count":1608,"max":[2.02836227,2.58177161,5.887334],"min":[-11.34908,-0.02817209,-10.64866],"type":"VEC3","name":"accessorPositions"},{"bufferView":1,"byteOffset":19296,"componentType":5126,"count":1608,"type":"VEC3","name":"accessorNormals"},{"bufferView":2,"componentType":5126,"count":1608,"type":"VEC2","name":"accessorUVs"},{"bufferView":0,"byteOffset":3216,"componentType":5123,"count":204,"type":"SCALAR","name":"accessorIndices"},{"bufferView":1,"byteOffset":38592,"componentType":5126,"count":204,"max":[6.78315353,0.0804023743,8.125588],"min":[-6.0746417,0.0,-8.249778],"type":"VEC3","name":"accessorPositions"},{"bufferView":1,"byteOffset":41040,"componentType":5126,"count":204,"type":"VEC3","name":"accessorNormals"}],"bufferViews":[{"buffer":0,"byteLength":3624,"name":"bufferViewScalar"},{"buffer":0,"byteOffset":3624,"byteLength":43488,"byteStride":12,"name":"bufferViewFloatVec3"},{"buffer":0,"byteOffset":47112,"byteLength":12864,"byteStride":8,"name":"bufferViewFloatVec2"}],"buffers":[{"uri":"scheme_001.bin","byteLength":59976}],"materials":[{"pbrMetallicRoughness":{"baseColorFactor":[0.8980393,0.8980393,0.8980393,1.0],"baseColorTexture":{"index":1,"texCoord":0,"extensions":{"KHR_texture_transform":{"offset":[0.0,0.0],"scale":[1.0,1.0],"texCoord":0}}},"metallicFactor":1.0,"roughnessFactor":1.0,"metallicRoughnessTexture":{"index":2,"texCoord":0,"extensions":{"KHR_texture_transform":{"offset":[0.0,0.0],"scale":[1.0,1.0],"texCoord":0}}}},"normalTexture":{"index":0,"texCoord":0,"extensions":{"KHR_texture_transform":{"offset":[0.0,0.0],"scale":[1.0,1.0],"texCoord":0}}},"emissiveFactor":[0.0,0.0,0.0],"alphaMode":"OPAQUE","name":"pbr_walls"},{"pbrMetallicRoughness":{"baseColorFactor":[1.0,0.9686275,0.9686275,1.0],"metallicFactor":0.0,"roughnessFactor":0.599999964},"emissiveFactor":[0.0,0.0,0.0],"alphaMode":"OPAQUE","name":"pbr_ceiling"}],"textures":[{"sampler":0,"source":0,"name":"White_stucco_wall_02_2K_Normal.png"},{"sampler":0,"source":1,"name":"White_stucco_wall_02_2K_Base_Color.png"},{"sampler":0,"source":2,"name":"White_stucco_wall_02_2K_Roughness0.jpg"}],"images":[{"uri":"White_stucco_wall_02_2K_Normal.png"},{"uri":"White_stucco_wall_02_2K_Base_Color.png"},{"uri":"White_stucco_wall_02_2K_Roughness0.jpg"}],"samplers":[{"magFilter":9729,"minFilter":9987,"wrapS":10497,"wrapT":10497}]}