{"asset":{"version":"2.0","generator":"babylon.js glTF exporter for 3ds max 2019 v1.3.23"},"extensionsUsed":["KHR_texture_transform"],"extensionsRequired":["KHR_texture_transform"],"scene":0,"scenes":[{"nodes":[0,1],"extensions":{}}],"nodes":[{"mesh":0,"translation":[-0.442800522,0.09067774,0.134106666],"rotation":[0.0,0.0,0.0,1.0],"scale":[1.0,1.0,1.0],"name":"Object002"},{"translation":[0.0,0.0,0.0],"rotation":[0.0,0.0,0.0,1.0],"scale":[1.0,1.0,1.0],"name":"Default light"}],"meshes":[{"primitives":[{"attributes":{"POSITION":1,"NORMAL":2,"TEXCOORD_0":3},"indices":0,"mode":4,"material":0}],"name":"Object002"}],"accessors":[{"bufferView":0,"componentType":5123,"count":204,"type":"SCALAR","name":"accessorIndices"},{"bufferView":1,"componentType":5126,"count":204,"max":[6.78315353,0.0804023743,8.125587],"min":[-6.074641,0.0,-8.249778],"type":"VEC3","name":"accessorPositions"},{"bufferView":1,"byteOffset":2448,"componentType":5126,"count":204,"type":"VEC3","name":"accessorNormals"},{"bufferView":2,"componentType":5126,"count":204,"type":"VEC2","name":"accessorUVs"}],"bufferViews":[{"buffer":0,"byteLength":408,"name":"bufferViewScalar"},{"buffer":0,"byteOffset":408,"byteLength":4896,"byteStride":12,"name":"bufferViewFloatVec3"},{"buffer":0,"byteOffset":5304,"byteLength":1632,"byteStride":8,"name":"bufferViewFloatVec2"}],"buffers":[{"uri":"scheme_001_floor_001.bin","byteLength":6936}],"materials":[{"pbrMetallicRoughness":{"baseColorFactor":[0.5,0.5,0.5,1.0],"baseColorTexture":{"index":1,"texCoord":0,"extensions":{"KHR_texture_transform":{"offset":[0.0,0.0],"scale":[1.0,1.0],"texCoord":0}}},"metallicFactor":1.0,"roughnessFactor":1.0,"metallicRoughnessTexture":{"index":2,"texCoord":0,"extensions":{"KHR_texture_transform":{"offset":[0.0,0.0],"scale":[1.0,1.0],"texCoord":0}}}},"normalTexture":{"index":0,"texCoord":0,"extensions":{"KHR_texture_transform":{"offset":[0.0,0.0],"scale":[1.0,1.0],"texCoord":0}}},"emissiveFactor":[0.0,0.0,0.0],"alphaMode":"OPAQUE","name":"pbr_woodfloor"}],"textures":[{"sampler":0,"source":0,"name":"oakfloor_normal.png"},{"sampler":0,"source":1,"name":"oakfloor_basecolor.png"},{"sampler":0,"source":2,"name":"oakfloor_roughness0.jpg"}],"images":[{"uri":"oakfloor_normal.png"},{"uri":"oakfloor_basecolor.png"},{"uri":"oakfloor_roughness0.jpg"}],"samplers":[{"magFilter":9729,"minFilter":9987,"wrapS":10497,"wrapT":10497}]}